<svg xmlns="http://www.w3.org/2000/svg" viewBox="0 0 64 64" id="shoppingg"><path fill="#465a61" d="M40.4 53.8c-1.5 0-2.7-1.2-2.7-2.7v-5.4H24.3v5.4c0 1.5-1.2 2.7-2.7 2.7h-1.3v2.7h21.6v-2.7h-1.5z"></path><path fill="#3b4a51" d="M37.7 51.1v-5.4H31v10.8h10.8v-2.7h-1.3c-1.6 0-2.8-1.2-2.8-2.7z"></path><path fill="#596c76" d="M54 10.5v29.7l-21.7 2.7L8 40.2V10.5h46z"></path><path fill="#465a61" d="m31 42.8 1.3.1L54 40.2V10.5H31v32.3z"></path><path fill="#fff7cc" d="M10.7 40.5V13.2h40.6v27.4l-19 2.4-21.6-2.5z"></path><path fill="#ffe6b3" d="m31 42.7 1.3.1 19-2.4V13.2H31v29.5z"></path><path fill="#596c76" d="M8 40.2v8.2h46v-8.2H8z"></path><path fill="#465a61" d="M31 40.2h23v8.2H31v-8.2z"></path><path fill="#596c76" d="M29.7 15.9h2.7v6.8h-2.7v-6.8z"></path><path fill="#465a61" d="M31 15.9h1.3v6.8H31v-6.8z"></path><path fill="#ff641a" d="m21.5 22.7 3 12.1h12.9l3-12.1H21.5z"></path><path fill="#f03800" d="M31 34.8h6.4l3-12.1H31v12.1z"></path><path fill="#ff9100" d="M20.2 21.3h21.6V24H20.2v-2.7z"></path><path fill="#ff641a" d="M31 21.3h10.8V24H31v-2.7z"></path></svg>